#!OML:ASF E:\motion texture\Top Level 1\Subject 1\Session 1\male.ASF
:FULLY-SPECIFIED
:DEGREES
248
root 8.9775 17.7788 3.50504 14.802 -56.5995 -3.75939
lowerback 2.91854 6.64647 -0.678398
upperback 0.727663 8.81257 -1.25583
thorax -0.7772 4.40051 -1.21488
lowerneck -13.3826 -13.1142 -15.1963
upperneck 4.24713 -16.9334 18.5233
head 6.44596 -7.64004 6.38603
rclavicle -2.09966e-015 7.00716e-015
rhumerus 6.79855 33.1753 -63.0599
rradius 76.6032
rwrist -38.921
rhand 4.39383 -42.7599
rfingers 7.12502
rthumb 29.7916 -70.3847
lclavicle -2.09966e-015 7.00716e-015
lhumerus -42.3749 0.549081 80.5664
lradius 55.9763
lwrist 17.4593
lhand -3.9397 29.6509
lfingers 7.12502
lthumb 21.8119 58.4418
rfemur -39.7747 -14.7605 20.3922
rtibia 31.4373
rfoot 0.301829 -15.9007
rtoes 0.91722
lfemur -12.9178 -11.6719 -18.4989
ltibia 21.9279
lfoot -14.7474 -7.29301
ltoes 2.52109
249
root 8.81479 17.7716 3.52446 14.5978 -56.247 -3.49308
lowerback 2.88 6.65029 -0.61677
upperback 0.67923 8.82027 -1.26775
thorax -0.794369 4.40462 -1.25854
lowerneck -13.2566 -13.2201 -15.2359
upperneck 4.25831 -17.0898 18.5193
head 6.45753 -7.72176 6.3693
rclavicle 7.10717e-014 4.05024e-015
rhumerus 8.30005 31.4569 -61.2319
rradius 75.7722
rwrist -39.412
rhand 4.64574 -43.4247
rfingers 7.12502
rthumb 30.032 -71.0061
lclavicle 7.10717e-014 4.05024e-015
lhumerus -42.3305 1.46459 79.6106
lradius 54.7521
lwrist 16.4849
lhand -4.4429 29.7176
lfingers 7.12502
lthumb 21.3286 58.5639
rfemur -39.7305 -14.6942 20.1351
rtibia 30.0947
rfoot 0.587165 -16.3559
rtoes 1.16129
lfemur -12.4116 -11.7035 -18.4247
ltibia 21.8987
lfoot -14.9395 -7.56314
ltoes 2.17964
250
root 8.65078 17.7644 3.54417 14.412 -55.9138 -3.24878
lowerback 2.84057 6.65225 -0.548843
upperback 0.626046 8.82565 -1.2788
thorax -0.815137 4.40753 -1.30484
lowerneck -13.1347 -13.3197 -15.2755
upperneck 4.27996 -17.2387 18.5153
head 6.47183 -7.79936 6.35356
rclavicle 4.23536e-014 7.7526e-015
rhumerus 9.79278 29.6294 -59.4992
rradius 74.7622
rwrist -39.8522
rhand 4.84668 -44.166
rfingers 7.12502
rthumb 30.2237 -71.7125
lclavicle 4.23536e-014 7.7526e-015
lhumerus -42.3058 2.3799 78.6457
lradius 53.5373
lwrist 15.5191
lhand -4.89597 29.7691
lfingers 7.12502
lthumb 20.8934 58.664
rfemur -39.6713 -14.6175 19.9119
rtibia 28.8351
rfoot 0.857697 -16.8257
rtoes 1.52266
lfemur -11.927 -11.7268 -18.3321
ltibia 21.9104
lfoot -15.1021 -7.84073
ltoes 1.81362
251
root 8.48536 17.7573 3.56408 14.2476 -55.6011 -3.03216
lowerback 2.80051 6.65144 -0.471951
upperback 0.569017 8.8276 -1.28914
thorax -0.838319 4.40866 -1.35529
lowerneck -13.0226 -13.4118 -15.3049
upperneck 4.31473 -17.3791 18.5057
head 6.48894 -7.8721 6.33539
rclavicle -2.97028e-014 -2.76186e-014
rhumerus 11.2767 27.7072 -57.8768
rradius 73.5668
rwrist -40.219
rhand 4.99965 -44.9611
rfingers 7.12502
rthumb 30.3696 -72.4808
lclavicle -2.97028e-014 -2.76186e-014
lhumerus -42.3017 3.29526 77.6689
lradius 52.3342
lwrist 14.5655
lhand -5.32797 29.818
lfingers 7.12502
lthumb 20.4783 58.7581
rfemur -39.5974 -14.5292 19.7293
rtibia 27.6624
rfoot 1.11008 -17.3053
rtoes 1.99872
lfemur -11.465 -11.7393 -18.2161
ltibia 21.9656
lfoot -15.2307 -8.12933
ltoes 1.41557
252
root 8.31861 17.7505 3.5842 14.1055 -55.3076 -2.84279
lowerback 2.76019 6.64782 -0.386704
upperback 0.506847 8.826 -1.29818
thorax -0.865652 4.40795 -1.40913
lowerneck -12.9183 -13.4967 -15.325
upperneck 4.3609 -17.5112 18.492
head 6.50826 -7.94021 6.31548
rclavicle -4.0285e-014 -1.11071e-014
rhumerus 12.7458 25.704 -56.3756
rradius 72.1862
rwrist -40.4888
rhand 5.09943 -45.7927
rfingers 7.12502
rthumb 30.4648 -73.2948
lclavicle -4.0285e-014 -1.11071e-014
lhumerus -42.3212 4.2105 76.6822
lradius 51.1441
lwrist 13.6237
lhand -5.73671 29.8686
lfingers 7.12502
lthumb 20.0854 58.8504
rfemur -39.5129 -14.433 19.5901
rtibia 26.5802
rfoot 1.33975 -17.7896
rtoes 2.59089
lfemur -11.0317 -11.7455 -18.0758
ltibia 22.0691
lfoot -15.3172 -8.43064
ltoes 0.990748
253
root 8.15043 17.7442 3.60449 13.9855 -55.0332 -2.68163
lowerback 2.72015 6.64159 -0.291324
upperback 0.4399 8.82117 -1.30734
thorax -0.896582 4.40551 -1.46879
lowerneck -12.8218 -13.5744 -15.3331
upperneck 4.41697 -17.6356 18.4752
head 6.52929 -8.00389 6.29369
rclavicle 4.49378e-014 -2.28602e-015
rhumerus 14.1956 23.634 -55.0062
rradius 70.6271
rwrist -40.6408
rhand 5.1362 -46.6404
rfingers 7.12502
rthumb 30.4999 -74.136
lclavicle 4.49378e-014 -2.28602e-015
lhumerus -42.3647 5.12304 75.6832
lradius 49.9687
lwrist 12.698
lhand -6.1258 29.921
lfingers 7.12502
lthumb 19.7114 58.9416
rfemur -39.4169 -14.3296 19.4971
rtibia 25.5899
rfoot 1.54521 -18.2713
rtoes 3.29565
lfemur -10.6282 -11.7468 -17.9096
ltibia 22.2223
lfoot -15.3559 -8.74612
ltoes 0.546269
254
root 7.98069 17.7384 3.62482 13.8891 -54.7787 -2.55112
lowerback 2.67999 6.63241 -0.187549
upperback 0.368682 8.81263 -1.31499
thorax -0.93092 4.40109 -1.53161
lowerneck -12.7329 -13.6447 -15.3322
upperneck 4.48173 -17.7519 18.4584
head 6.55213 -8.06286 6.27153
rclavicle -2.81156e-014 1.68967e-014
rhumerus 15.627 21.5164 -53.7729
rradius 68.8961
rwrist -40.6539
rhand 5.10788 -47.4813
rfingers 7.12502
rthumb 30.4729 -74.9819
lclavicle -2.81156e-014 1.68967e-014
lhumerus -42.4345 6.03463 74.6734
lradius 48.8102
lwrist 11.786
lhand -6.50102 29.9773
lfingers 7.12502
lthumb 19.3507 59.0345
rfemur -39.3092 -14.2151 19.4522
rtibia 24.6911
rfoot 1.72603 -18.7468
rtoes 4.11113
lfemur -10.2571 -11.7441 -17.7144
ltibia 22.4265
lfoot -15.3396 -9.07716
ltoes 0.0764541
255
root 7.80941 17.7333 3.64527 13.8137 -54.5428 -2.4499
lowerback 2.63741 6.6201 -0.0801407
upperback 0.295877 8.80007 -1.31666
thorax -0.966072 4.39455 -1.59008
lowerneck -12.6519 -13.7084 -15.3258
upperneck 4.55316 -17.8596 18.4395
head 6.57617 -8.11717 6.2489
rclavicle -8.47071e-014 2.74323e-014
rhumerus 17.0412 19.3683 -52.672
rradius 67.0067
rwrist -40.5086
rhand 5.01242 -48.2955
rfingers 7.12502
rthumb 30.3818 -75.8129
lclavicle -8.47071e-014 2.74323e-014
lhumerus -42.5304 6.94927 73.6598
lradius 47.6681
lwrist 10.8861
lhand -6.85465 30.0339
lfingers 7.12502
lthumb 19.0106 59.1249
rfemur -39.1896 -14.095 19.4565
rtibia 23.8855
rfoot 1.88036 -19.2063
rtoes 5.01617
lfemur -9.91908 -11.7414 -17.4922
ltibia 22.682
lfoot -15.2606 -9.42303
ltoes -0.431966
256
root 7.6366 17.729 3.66581 13.7577 -54.3247 -2.37698
lowerback 2.59786 6.60453 0.0376865
upperback 0.219209 8.78339 -1.31894
thorax -1.00538 4.38577 -1.6553
lowerneck -12.5782 -13.7655 -15.3085
upperneck 4.63149 -17.9607 18.4232
head 6.60183 -8.16743 6.22627
rclavicle -3.35201e-014 -2.28105e-014
rhumerus 18.4315 17.2017 -51.7171
rradius 64.9751
rwrist -40.186
rhand 4.84863 -49.0552
rfingers 7.12502
rthumb 30.2256 -76.6014
lclavicle -3.35201e-014 -2.28105e-014
lhumerus -42.6535 7.85742 72.6348
lradius 46.5448
lwrist 10.0034
lhand -7.19886 30.1005
lfingers 7.12502
lthumb 18.6796 59.2236
rfemur -39.0576 -13.9696 19.5092
rtibia 23.1729
rfoot 2.00735 -19.6445
rtoes 6.00976
lfemur -9.61571 -11.7411 -17.2446
ltibia 22.9901
lfoot -15.1139 -9.78099
ltoes -0.985445
257
root 7.46224 17.7257 3.68641 13.7219 -54.1244 -2.33394
lowerback 2.5546 6.58687 0.157834
upperback 0.143465 8.76406 -1.31399
thorax -1.0426 4.37555 -1.71391
lowerneck -12.5125 -13.818 -15.2869
upperneck 4.71351 -18.0558 18.4065
head 6.62851 -8.21416 6.20351
rclavicle 1.44864e-014 1.19271e-015
rhumerus 19.803 15.0312 -50.8953
rradius 62.8204
rwrist -39.6723
rhand 4.63086 -49.7405
rfingers 7.12502
rthumb 30.0178 -77.3245
lclavicle 1.44864e-014 1.19271e-015
lhumerus -42.8008 8.76647 71.6099
lradius 45.4387
lwrist 9.13377
lhand -7.5269 30.1672
lfingers 7.12502
lthumb 18.364 59.3203
rfemur -38.9128 -13.8378 19.6111
rtibia 22.5523
rfoot 2.10753 -20.0554
rtoes 7.06705
lfemur -9.34916 -11.7443 -16.9712
ltibia 23.3536
lfoot -14.9 -10.148
ltoes -1.57626
258
root 7.28638 17.7232 3.70711 13.7051 -53.9417 -2.31974
lowerback 2.51166 6.56572 0.283597
upperback 0.0665617 8.74025 -1.30476
thorax -1.08125 4.36293 -1.77126
lowerneck -12.4554 -13.8646 -15.2597
upperneck 4.8009 -18.1436 18.3911
head 6.65672 -8.25666 6.18117
rclavicle 4.75592e-014 -2.31584e-014
rhumerus 21.1527 12.8742 -50.212
rradius 60.5666
rwrist -38.9589
rhand 4.36956 -50.3292
rfingers 7.12502
rthumb 29.7685 -77.9581
lclavicle 4.75592e-014 -2.31584e-014
lhumerus -42.9768 9.67335 70.5818
lradius 44.3535
lwrist 8.27981
lhand -7.84686 30.2451
lfingers 7.12502
lthumb 18.0562 59.427
rfemur -38.7566 -13.7029 19.7621
rtibia 22.0245
rfoot 2.17889 -20.4344
rtoes 8.18648
lfemur -9.12155 -11.7529 -16.674
ltibia 23.7748
lfoot -14.6175 -10.5194
ltoes -2.20943
